<svg width="47" height="48" viewBox="0 0 47 48" fill="none" xmlns="http://www.w3.org/2000/svg">
<g clip-path="url(#clip0_1_183)">
<ellipse cx="16.0175" cy="24" rx="15.4495" ry="16" fill="#98C3E8"/>
<path d="M45.9165 24C45.9165 32.3176 39.4146 39 31.467 39C23.5195 39 17.0175 32.3176 17.0175 24C17.0175 15.6824 23.5195 9 31.467 9C39.4146 9 45.9165 15.6824 45.9165 24Z" fill="white" stroke="#316099" stroke-width="2"/>
<path d="M38.0079 31L33.0879 17H29.6679L24.7679 31H27.7479L28.5879 28.48H34.1679L35.0079 31H38.0079ZM31.3879 20.18L33.3079 25.9H29.4679L31.3879 20.18Z" fill="#316099"/>
</g>
<defs>
<clipPath id="clip0_1_183">
<rect width="46.3485" height="48" fill="white" transform="matrix(1 0 0 -1 0.568054 48)"/>
</clipPath>
</defs>
</svg>
