<svg width="47" height="48" viewBox="0 0 47 48" fill="none" xmlns="http://www.w3.org/2000/svg">
<g clip-path="url(#clip0_1_223)">
<ellipse cx="16.0088" cy="24" rx="15.4495" ry="16" fill="#316099"/>
<path d="M45.9078 24C45.9078 32.3176 39.4058 39 31.4583 39C23.5108 39 17.0088 32.3176 17.0088 24C17.0088 15.6824 23.5108 9 31.4583 9C39.4058 9 45.9078 15.6824 45.9078 24Z" fill="white" stroke="#316099" stroke-width="2"/>
<path d="M37.9992 31L33.0792 17H29.6592L24.7592 31H27.7392L28.5792 28.48H34.1592L34.9992 31H37.9992ZM31.3792 20.18L33.2992 25.9H29.4592L31.3792 20.18Z" fill="#316099"/>
</g>
<defs>
<clipPath id="clip0_1_223">
<rect width="46.3485" height="48" fill="white" transform="matrix(1 0 0 -1 0.559326 48)"/>
</clipPath>
</defs>
</svg>
