<svg width="56" height="45" viewBox="0 0 56 45" fill="none" xmlns="http://www.w3.org/2000/svg">
<rect x="44.9436" y="22.4719" width="31.78" height="31.78" transform="rotate(135 44.9436 22.4719)" fill="#6D0AD3"/>
<rect x="48.6292" y="22.4719" width="31.78" height="31.78" transform="rotate(135 48.6292 22.4719)" fill="#00CF95"/>
<rect x="52.3146" y="22.4719" width="31.78" height="31.78" transform="rotate(135 52.3146 22.4719)" fill="#0098EF"/>
<rect x="56" y="22.4719" width="31.78" height="31.78" transform="rotate(135 56 22.4719)" fill="#D1FFA2"/>
<g filter="url(#filter0_d_14_35)">
<path d="M41.4 25.4658C41.4093 25.7552 41.1713 26.0632 40.686 26.3898C40.5833 26.6232 40.392 26.8285 40.112 27.0058C39.6547 27.3045 39.2533 27.4958 38.908 27.5798C37.648 27.9532 36.668 28.2028 35.968 28.3288C35.268 28.4548 34.6053 28.5038 33.98 28.4758C33.8027 28.4572 33.651 28.4525 33.525 28.4618C33.399 28.4712 33.287 28.4875 33.189 28.5108C33.091 28.5342 32.993 28.5692 32.895 28.6158C32.797 28.6625 32.7013 28.7232 32.608 28.7978C32.1693 29.1152 31.5253 29.2225 30.676 29.1198C29.8267 29.0172 29.1733 28.7465 28.716 28.3078C28.4173 28.0278 28.191 27.8668 28.037 27.8248C27.883 27.7828 27.694 27.8318 27.47 27.9718C27.1247 28.1772 26.8703 28.1538 26.707 27.9018C26.5437 27.6498 26.5787 27.3372 26.812 26.9638C26.9333 26.7398 26.924 26.3222 26.784 25.7108C26.644 25.0995 26.6347 24.7378 26.756 24.6258C26.8773 24.5138 27.1853 24.6025 27.68 24.8918L28.492 25.3398L29.22 24.5978C29.5653 24.2712 30.158 23.6062 30.998 22.6028C31.838 21.5995 32.384 20.9625 32.636 20.6918L33.294 20.0058L33.196 18.9278C33.14 18.1998 33.0233 17.6725 32.846 17.3458C32.5753 16.8418 32.51 16.3612 32.65 15.9038C32.7807 15.4465 33.1447 14.9052 33.742 14.2798C33.9753 14.0465 34.1713 13.8855 34.33 13.7968C34.4887 13.7082 34.6847 13.6638 34.918 13.6638C35.1887 13.6638 35.5317 13.7618 35.947 13.9578C36.3623 14.1538 36.5793 14.3172 36.598 14.4478C36.7193 15.2785 36.71 15.7638 36.57 15.9038C36.5047 15.9878 36.374 16.3518 36.178 16.9958C35.9727 17.5932 35.702 18.1112 35.366 18.5498C35.0673 18.9885 34.918 19.2638 34.918 19.3758C34.918 19.4972 34.8433 19.6372 34.694 19.7958C34.5353 19.9825 34.5027 20.3512 34.596 20.9018C35.1467 23.7112 35.2027 25.5685 34.764 26.4738C34.5587 26.8938 34.5027 27.1365 34.596 27.2018C34.6707 27.2578 34.9507 27.2252 35.436 27.1038C35.8187 27.0105 36.3647 26.9078 37.074 26.7958C37.2327 26.7678 37.3983 26.7235 37.571 26.6628C37.7437 26.6022 37.9233 26.5345 38.11 26.4598C38.2967 26.3852 38.46 26.3245 38.6 26.2778C38.7773 26.2312 38.894 26.1845 38.95 26.1378C38.9873 26.1192 39.0223 26.0935 39.055 26.0608C39.0877 26.0282 39.1157 25.9978 39.139 25.9698C39.1623 25.9418 39.1927 25.9115 39.23 25.8788C39.2673 25.8462 39.3 25.8205 39.328 25.8018C39.4493 25.6992 39.6733 25.5918 40 25.4798C40.3267 25.3678 40.5413 25.2838 40.644 25.2278C40.7467 25.1718 40.8353 25.1298 40.91 25.1018C40.9847 25.0738 41.064 25.0575 41.148 25.0528C41.232 25.0482 41.295 25.0808 41.337 25.1508C41.379 25.2208 41.4 25.3258 41.4 25.4658ZM32.902 26.5578C33.3687 26.1192 33.6533 25.7225 33.756 25.3678C33.8587 25.0132 33.8773 24.3832 33.812 23.4778C33.7187 22.4325 33.616 21.8865 33.504 21.8398C33.4107 21.8118 33.1073 22.0872 32.594 22.6658C32.2207 23.0858 31.6513 23.7158 30.886 24.5558C30.242 25.2185 29.92 25.6432 29.92 25.8298C29.92 25.9698 30.1417 26.1822 30.585 26.4668C31.0283 26.7515 31.4273 26.9405 31.782 27.0338C31.978 27.0805 32.146 27.0735 32.286 27.0128C32.426 26.9522 32.6313 26.8005 32.902 26.5578ZM34.288 17.7938C34.4 17.7472 34.617 17.3342 34.939 16.5548C35.261 15.7755 35.3893 15.3298 35.324 15.2178C35.2307 14.9192 35.002 14.9285 34.638 15.2458C34.386 15.4512 34.204 15.7265 34.092 16.0718C33.9427 16.5385 33.938 17.0332 34.078 17.5558C34.1527 17.7145 34.2227 17.7938 34.288 17.7938Z" fill="#6D0AD3"/>
</g>
<defs>
<filter id="filter0_d_14_35" x="26.462" y="13.6638" width="14.952" height="17.6101" filterUnits="userSpaceOnUse" color-interpolation-filters="sRGB">
<feFlood flood-opacity="0" result="BackgroundImageFix"/>
<feColorMatrix in="SourceAlpha" type="matrix" values="0 0 0 0 0 0 0 0 0 0 0 0 0 0 0 0 0 0 127 0" result="hardAlpha"/>
<feOffset dy="2"/>
<feColorMatrix type="matrix" values="0 0 0 0 0 0 0 0 0 0 0 0 0 0 0 0 0 0 0.25 0"/>
<feBlend mode="normal" in2="BackgroundImageFix" result="effect1_dropShadow_14_35"/>
<feBlend mode="normal" in="SourceGraphic" in2="effect1_dropShadow_14_35" result="shape"/>
</filter>
</defs>
</svg>
